<svg width="47" height="42" viewBox="0 0 47 42" fill="none" xmlns="http://www.w3.org/2000/svg">
<path d="M46.5049 0.375H0.567383C0.30957 0.375 0.0986328 0.585938 0.0986328 0.84375V4.59375C0.0986328 4.85156 0.30957 5.0625 0.567383 5.0625H46.5049C46.7627 5.0625 46.9736 4.85156 46.9736 4.59375V0.84375C46.9736 0.585938 46.7627 0.375 46.5049 0.375ZM46.5049 36.9375H0.567383C0.30957 36.9375 0.0986328 37.1484 0.0986328 37.4062V41.1562C0.0986328 41.4141 0.30957 41.625 0.567383 41.625H46.5049C46.7627 41.625 46.9736 41.4141 46.9736 41.1562V37.4062C46.9736 37.1484 46.7627 36.9375 46.5049 36.9375ZM46.5049 18.6562H0.567383C0.30957 18.6562 0.0986328 18.8672 0.0986328 19.125V22.875C0.0986328 23.1328 0.30957 23.3438 0.567383 23.3438H46.5049C46.7627 23.3438 46.9736 23.1328 46.9736 22.875V19.125C46.9736 18.8672 46.7627 18.6562 46.5049 18.6562Z" fill="black"/>
</svg>
